<svg xmlns="http://www.w3.org/2000/svg" viewBox="0 0 200 200" width="200" height="200" role="img" aria-label="Taskly Tanuki">
  <defs>
    <radialGradient id="fur" cx="50%" cy="40%" r="65%">
      <stop offset="0%" stop-color="#C99A6B"/>
      <stop offset="100%" stop-color="#A9794B"/>
    </radialGradient>
  </defs>
  <!-- Ohren -->
  <ellipse cx="56" cy="58" rx="22" ry="26" fill="#8A5E38"/>
  <ellipse cx="144" cy="58" rx="22" ry="26" fill="#8A5E38"/>
  <ellipse cx="56" cy="60" rx="12" ry="15" fill="#5C3D24"/>
  <ellipse cx="144" cy="60" rx="12" ry="15" fill="#5C3D24"/>
  <!-- Kopf -->
  <ellipse cx="100" cy="110" rx="74" ry="68" fill="url(#fur)"/>
  <!-- Wangen / helle Schnauze -->
  <ellipse cx="100" cy="130" rx="50" ry="40" fill="#F2E2CB"/>
  <!-- Augenmasken (Tanuki-typisch) -->
  <ellipse cx="72" cy="104" rx="24" ry="20" fill="#5C3D24"/>
  <ellipse cx="128" cy="104" rx="24" ry="20" fill="#5C3D24"/>
  <!-- Augen -->
  <circle cx="74" cy="106" r="9" fill="#1D1D1F"/>
  <circle cx="126" cy="106" r="9" fill="#1D1D1F"/>
  <circle cx="77" cy="103" r="3" fill="#fff"/>
  <circle cx="129" cy="103" r="3" fill="#fff"/>
  <!-- Nase + Mund -->
  <ellipse cx="100" cy="130" rx="9" ry="7" fill="#1D1D1F"/>
  <path d="M100 137 q-12 14 -24 6 M100 137 q12 14 24 6" fill="none" stroke="#1D1D1F" stroke-width="3" stroke-linecap="round"/>
  <!-- winkende Pfote -->
  <circle cx="170" cy="150" r="16" fill="#8A5E38"/>
</svg>
